<?xml version="1.0"?>
<svg width="995" height="174" xmlns="http://www.w3.org/2000/svg" xmlns:svg="http://www.w3.org/2000/svg" version="1.1">

 <g class="layer">
  <title>Layer 1</title>
  <g fill="none" id="svg_1" stroke-width="2">
   <path d="m117.69,42.19l0,0.87" id="svg_2" stroke="#4d3684"/>
   <path d="m117.78,43.23l0.1,6.98" id="svg_3" stroke="#4d3684"/>
   <path d="m53,127.97l-14.21,-0.03" id="svg_4" stroke="#4d3684"/>
  </g>
  <path d="m119.69,42.19l0,0.87q0.04,0.09 0.09,0.17l0.1,6.98q-0.32,0.55 -0.32,1.3q-0.09,64.33 -0.07,65.49q0.11,6.79 -5.99,9.79c-1.57,0.77 -6.15,0.97 -8.37,0.98q-32.11,0.17 -45.38,0.03q-3.05,-0.04 -4.75,0.17l-14.21,-0.03q-7.46,-0.31 -14.29,-0.16q-1.05,0.02 -6.17,-0.86a3.38,3.11 -24.8 0 1 -0.87,-0.28q-5.53,-2.6 -5.56,-9.89q-0.24,-66.05 -0.18,-94.24c0.02,-6.84 4.99,-10.53 11.77,-10.44q10.19,0.12 81.77,0.05q4.89,-0.01 7.22,1.35c4.48,2.6 5.05,5.55 5.1,11.03q0.08,8.86 0.11,17.69z" fill="#7b4ce8" id="svg_5"/>
  <rect fill="#ffffff" height="111.56" id="svg_6" rx="1.74" width="18.02" x="298.69" y="21.17"/>
  <path d="m368.71,22.93a1.4,1.4 0 0 1 1.39,-1.4l37.4,-0.2a54.3,53.13 -0.3 0 1 54.58,52.85l0.02,5.1a54.3,53.13 -0.3 0 1 -54.02,53.41l-37.4,0.2a1.4,1.4 0 0 1 -1.41,-1.4l-0.56,-108.56zm18.26,16.66l0.66,75.64a1.2,1.2 0 0 0 1.21,1.19l16.7,-0.14a37.86,37.84 89.5 0 0 37.51,-38.19l-0.02,-2.32a37.86,37.84 89.5 0 0 -38.17,-37.53l-16.7,0.14a1.2,1.2 0 0 0 -1.19,1.21z" fill="#ffffff" id="svg_7"/>
  <path d="m693.44,21.2l21.45,0a1.03,1.03 0 0 1 1.03,1.03l0,70.84a1.13,1.12 0 0 0 1.13,1.12l15.86,0a0.92,0.92 0 0 1 0.92,0.92l0,14.63a0.57,0.57 0 0 1 -0.57,0.57l-16,0a1.35,1.34 -90 0 0 -1.34,1.35q0.02,12.13 -0.11,17.83q-0.04,2 -1.65,2.88a1.42,1.29 -58.3 0 1 -0.63,0.18l-13.95,0.55a1.34,1.34 0 0 1 -1.39,-1.34l0,-20.36a0.8,0.79 0 0 0 -0.8,-0.79l-53.36,0a1.91,1.91 0 0 1 -1.91,-1.79q-0.45,-7.1 -0.09,-13.98q0.05,-1.02 1.7,-3.39q22.97,-32.86 31.6,-45.63q11.43,-16.92 16.77,-23.96a1.7,1.69 -71 0 1 1.34,-0.66zm4.67,24.26a0.75,0.75 0 0 0 -1.37,-0.42l-32.36,47.95a0.75,0.75 0 0 0 0.62,1.17l32.36,0a0.75,0.75 0 0 0 0.75,-0.75l0,-47.95z" fill="#7b4ce8" id="svg_8"/>
  <path d="m238.74,21.31q5.19,-0.02 10.89,0.19a1.91,1.91 0 0 1 1.74,1.28l38.61,108.75a0.79,0.79 0 0 1 -0.74,1.06l-17.42,0a2.34,2.33 -9.7 0 1 -2.2,-1.55l-8.43,-23.76a2.33,2.32 -9.8 0 0 -2.2,-1.55q-9.77,0 -19.89,0.05q-10.12,0.04 -19.89,0.12a2.33,2.32 9.3 0 0 -2.19,1.57l-8.23,23.83a2.34,2.33 9.3 0 1 -2.18,1.57l-17.42,0.14a0.79,0.79 0 0 1 -0.75,-1.05l37.69,-109.07a1.91,1.91 0 0 1 1.72,-1.29q5.7,-0.27 10.89,-0.29zm-16.26,67.66a0.83,0.83 0 0 0 0.79,1.1l31.26,-0.05a0.83,0.83 0 0 0 0.78,-1.1l-15.71,-45.67a0.83,0.83 0 0 0 -1.57,0l-15.55,45.72z" fill="#ffffff" id="svg_9"/>
  <path d="m348.35,132.76l-13.96,0a2.15,2.15 0 0 1 -2.15,-2.15l0,-107.22a2.15,2.15 0 0 1 2.15,-2.15l13.96,0a2.15,2.15 0 0 1 2.15,2.15l0,107.22a2.15,2.15 0 0 1 -2.15,2.15z" fill="#ffffff" id="svg_10"/>
  <path d="m38.79,127.94l14.21,0.03q0.58,5.68 0.87,11.42c0.19,3.7 4.6,3.84 7.89,3.83q38.54,-0.09 73.31,-0.09c1.23,0 2.79,-0.35 4.28,-0.4a2.11,2.11 0 0 0 0.87,-0.23q3.38,-1.73 3.42,-5.3q0.27,-23.61 0.27,-76.29q-0.01,-5.4 -1.16,-7.25q-1.94,-3.11 -6.46,-2.99q-7.36,0.2 -16.62,-0.1a1.44,1.43 2.9 0 1 -1.39,-1.53l0.68,-9.34a0.96,0.95 -1.9 0 1 0.82,-0.87l3.55,-0.48a6.72,6.49 42.4 0 1 1.45,-0.04q9.37,0.77 16.35,0.24q6.45,-0.48 9,0.78q5.72,2.83 5.73,9.44q0.15,78.32 0.07,91.48q-0.05,6.74 -3.77,11.46q-2.34,2.97 -7.16,3.01q-23.12,0.15 -87.95,0.05q-7.17,-0.02 -10.03,-1.53c-6.08,-3.23 -6.21,-9.81 -6.27,-16.91a4.91,4.77 -39.4 0 1 0.12,-1.07q1.54,-6.89 -2.08,-7.32z" fill="#ffffff" id="svg_11"/>
  <path d="m117.69,43.06l0,-0.87q0.64,0.38 0,0.87z" fill="#1f1f1f" id="svg_12"/>
  <path d="m117.88,50.21l-0.1,-6.98l0.1,6.98z" fill="#1f1f1f" id="svg_13"/>
  <path d="m786.4,124.85a0.27,0.27 0 0 0 -0.27,0.3q0.22,2.38 1.49,3.94c0.98,1.21 2.09,1.58 3.63,2a1.33,1.32 45.4 0 0 0.63,0.01q0.29,-0.07 1.32,-0.18c1.48,-0.16 2.75,-1.02 3.39,-2.37c0.3,-0.63 0.56,-0.74 1.25,-0.71q1.78,0.09 3.45,-0.01a0.26,0.26 0 0 1 0.27,0.34q-1.18,4.12 -4.86,5.96c-3.52,1.76 -8.34,1.28 -11.49,-1.13q-1.2,-0.92 -2.16,-2.5c-1.89,-3.09 -2.12,-6.34 -1.54,-9.89q0.25,-1.55 1.3,-3.58c1.88,-3.63 6.26,-5.43 10.09,-4.98q6.79,0.8 8.53,7.33q0.7,2.63 0.47,5.24a0.21,0.22 0 0 1 -0.2,0.2q-1.59,0.1 -1.74,0.1q-5.9,-0.07 -13.58,-0.06zm0.04,-3.47l10.53,-0.04a0,0 0 0 0 0,0l0,-0.02a5.28,5.23 89.8 0 0 -5.2,-5.3l-0.17,0a5.28,5.23 89.8 0 0 -5.17,5.34l0,0.02a0,0 0 0 0 0,0z" fill="#ffffff" id="svg_14"/>
  <path d="m491.65,78.65l-14.7,0a1.91,1.91 0 0 1 -1.89,-2.15l0.91,-7.16a4.95,4.92 58.8 0 1 0.26,-1.07q1.44,-4.02 5.89,-9.08q3.17,-3.6 8.44,-5.93q16.28,-7.19 33.93,-2.19q5.48,1.55 10.61,5.09c4.03,2.79 6.66,9.35 7.44,13.77q1.87,10.56 1.48,16.06q-0.26,3.59 -0.12,6.62c0.34,7.54 -0.19,14.8 0.24,22.84q0.01,0.24 -0.18,5.83q-0.15,4.58 1.15,9.66a1.64,1.64 0 0 1 -1.6,2.05q-6.49,-0.07 -13.22,-0.61c-4,-0.32 -4.36,-3.4 -4.29,-6.6a0.95,0.94 -29.1 0 0 -1.76,-0.5c-2.52,4.26 -8.81,7.51 -13.07,8.68c-8.15,2.23 -19.13,1.32 -27.21,-2.63c-12.73,-6.23 -14.4,-22.6 -7.94,-33.89a5.29,5.23 81.5 0 1 0.74,-1.01q5.01,-5.41 11.74,-8.08a4.44,4.42 -57.6 0 1 1.24,-0.28c4.04,-0.28 8.09,-1.51 12.46,-1.99q2.97,-0.32 13.18,-1.94q3.46,-0.56 6.26,-1.57a2.57,2.56 9.7 0 0 1.12,-0.79q2.17,-2.66 2.24,-3.27c1.02,-8 -4.39,-13.53 -12.27,-14.03q-4.39,-0.28 -9.52,0.47c-5.51,0.79 -9.62,8.04 -10.64,12.95a0.94,0.93 5.6 0 1 -0.92,0.75zm32.56,16.11c-1.83,0.27 -4.52,1.57 -7.08,1.95q-7.4,1.13 -13.81,1.85c-5,0.57 -11.6,4.3 -11.71,10.08c-0.23,11.73 9.56,11.97 18.73,11.61a3.89,3.85 -55.3 0 0 1.13,-0.21c7.28,-2.55 13.05,-5.77 13.58,-13.78q0.21,-3.02 -0.06,-10.86a0.67,0.67 0 0 0 -0.78,-0.64z" fill="#ffffff" id="svg_15"/>
  <path d="m754.02,113.91l0.85,-1.17a0.95,0.96 0 0 1 0.19,-0.19q3.41,-2.58 7.22,-0.88q1.98,0.88 3.04,2.88a0.12,0.13 0 0 0 0.2,0.01q2.11,-3.25 5.32,-3.51c3.82,-0.31 6.86,1.79 7.6,6.13c0.21,1.24 0.29,2.68 0.29,4.14q-0.01,9.54 -0.03,12.24a0.43,0.47 0.3 0 1 -0.43,0.47l-3.85,0a0.18,0.2 -13.2 0 1 -0.16,-0.11q-0.2,-0.43 -0.17,-0.85q0.11,-1.45 0.02,-2.54c-0.14,-1.68 0.1,-3.28 -0.03,-4.91c-0.11,-1.37 0.15,-2.76 0.02,-3.97c-0.12,-1.09 -0.06,-1.59 -0.09,-2.59a1.16,1.22 38.1 0 0 -0.04,-0.27q-0.92,-3.97 -4.75,-3.15q-0.69,0.15 -1.3,0.69q-1.7,1.52 -1.74,4.03q-0.09,5.42 -0.04,13.19a0.37,0.41 0 0 1 -0.36,0.41l-3.69,0.16a0.39,0.44 0 0 1 -0.41,-0.44q0.02,-7.83 -0.02,-13.4c0,-0.69 -0.14,-1.75 -0.38,-2.43q-0.8,-2.27 -3.19,-2.35q-1.39,-0.05 -2.32,0.64q-1.07,0.79 -1.54,2.05q-0.61,1.64 -0.42,3.33q0.07,0.6 0.06,0.82q0,0.67 -0.02,0.82q-0.1,0.79 -0.11,1.68c-0.01,0.9 0.22,1.98 0.09,2.95c-0.11,0.79 -0.08,1.16 -0.07,2.02a1.98,2 42.4 0 0 0.02,0.3q0.18,1.17 0.09,1.79q-0.12,0.81 -0.16,1.87a0.18,0.2 0 0 1 -0.16,0.18q-1.97,0.19 -3.45,0.09q-0.57,-0.04 -0.81,-0.46a0.67,0.74 23 0 1 -0.09,-0.24q-0.1,-0.53 -0.09,-3.02q0.05,-11.36 -0.01,-17.32q0,-0.42 0.11,-1.32a0.17,0.19 3.8 0 1 0.17,-0.16q0.34,0.01 0.95,-0.19a0.59,0.62 38.1 0 1 0.2,-0.02l3.03,0.24a0.2,0.22 -89.2 0 1 0.19,0.21l0.07,2.07a0.12,0.13 0 0 0 0.22,0.08z" fill="#ffffff" id="svg_16"/>
  <path d="m634.79,50.62a0.38,0.38 0 0 1 0.36,0.52l-43.69,111.03a2.84,2.82 10.6 0 1 -2.64,1.8l-16.35,0a0.81,0.81 0 0 1 -0.75,-1.11l11.18,-28.43a1.21,1.18 -45.8 0 0 0,-0.87l-32.84,-80.57a1.37,1.37 0 0 1 1.02,-1.87q7.71,-1.43 17.16,-0.03a2.14,2.1 69 0 1 1.05,0.48q0.82,0.71 1.89,3.39q6.65,16.64 9.92,25.66c3.45,9.52 7.28,18.21 10.7,27.81q0.32,0.89 0.84,1.45a0.64,0.64 0 0 0 1.07,-0.22q5.4,-14.98 14.43,-39.92q3.46,-9.54 5.91,-15.85q0.49,-1.24 1.39,-2.19c2.29,-2.39 9.25,-1.86 12.31,-1.16a3.03,3 -38.1 0 0 0.69,0.08l6.35,0z" fill="#ffffff" id="svg_17"/>
  <ellipse cx="742.48" cy="131.78" fill="#ffffff" id="svg_18" rx="3.58" ry="3.75" transform="rotate(-14.1, 742.48, 131.78)"/>
 </g>
</svg>