<?xml version="1.0"?>
<svg width="540" height="97" xmlns="http://www.w3.org/2000/svg" xmlns:svg="http://www.w3.org/2000/svg" version="1.1">

 <g class="layer">
  <title>Layer 1</title>
  <path d="m71.81,3.09c7.21,-0.01 12.65,4.09 14.69,10.28c3.76,11.49 -6.15,23.81 -13.52,32.12q-0.71,0.8 -1.09,0.8q-0.37,0 -1.09,-0.8c-7.4,-8.28 -17.36,-20.56 -13.64,-32.06c2.01,-6.2 7.43,-10.32 14.65,-10.34zm-0.79,7.23a8.44,8.21 -95.7 0 0 -7.33,9.22a8.44,8.21 -95.7 0 0 9.01,7.58a8.44,8.21 -95.7 0 0 7.33,-9.22a8.44,8.21 -95.7 0 0 -9.01,-7.58z" fill="#ffffff" id="svg_1"/>
  <path d="m80,43.15l2.75,-2.76a0.84,0.84 0 0 1 1.39,0.34c7.43,23.12 -9.84,49.38 -33.44,52.59c-29.36,3.99 -52.2,-20.56 -47.1,-49.5q2.47,-14.01 14.16,-23.83q14.51,-12.2 34.19,-8.06a1.25,1.25 0 0 1 0.95,1.52l-0.75,2.98a0.95,0.94 -72.4 0 1 -1.26,0.66q-4.06,-1.57 -9.67,-0.91c-7.16,0.84 -10.7,16.55 -11.2,22.46a0.51,0.5 2.6 0 0 0.51,0.55q17.55,-0.12 26.45,0.03c9.45,0.16 8.16,15.38 7.08,21.59a0.62,0.62 0 0 0 0.61,0.73l14.06,0a0.72,0.71 6.6 0 0 0.7,-0.55q2.26,-9.06 0.19,-16.39a1.47,1.46 59.8 0 1 0.38,-1.45zm-48.06,-25.46a0.32,0.32 0 0 0 -0.4,-0.47q-14.92,6.44 -21.35,21.37a0.4,0.4 0 0 0 0.37,0.56l13.59,0a0.67,0.66 1.8 0 0 0.67,-0.62q0.83,-11.17 7.12,-20.84zm-7.86,43.49l-0.18,-16.48a0.27,0.27 0 0 0 -0.27,-0.27l-13.39,0.14a4.16,2.24 89.4 0 0 -2.2,4.18l0.1,8.7a4.16,2.24 89.4 0 0 2.28,4.14l13.39,-0.14a0.27,0.27 0 0 0 0.27,-0.27zm34.89,-0.08q0.03,-3.44 0.37,-5.33c0.61,-3.46 0.23,-6.58 -0.41,-9.08a2.87,2.87 0 0 0 -2.78,-2.16l-26.32,0a0.79,0.79 0 0 0 -0.79,0.79l0,15.07a1.13,1.12 -90 0 0 1.12,1.13l28.39,0a0.43,0.42 -89.3 0 0 0.42,-0.42zm-26.97,25.4q-6.11,-9.14 -7.04,-19.78a0.64,0.63 -2.5 0 0 -0.65,-0.58l-12.95,0.16a0.38,0.38 0 0 0 -0.35,0.54q6.31,14.16 20.61,20.12a0.31,0.31 0 0 0 0.38,-0.46zm12.16,1.88q4.66,-0.01 7.17,-3.45q5.7,-7.8 6.88,-18.3a0.35,0.34 4.8 0 0 -0.33,-0.38q-1.31,-0.07 -13.77,-0.04q-12.47,0.04 -13.78,0.11a0.35,0.34 -5.1 0 0 -0.33,0.38q1.24,10.5 6.98,18.27q2.53,3.42 7.18,3.41zm11.9,-1.87a0.31,0.31 0 0 0 0.38,0.46q14.44,-5.87 20.91,-20.06a0.39,0.38 13.1 0 0 -0.34,-0.55l-13.04,-0.27a0.64,0.64 0 0 0 -0.66,0.58q-1.02,10.7 -7.25,19.84z" fill="#c9a33b" id="svg_2"/>
  <path d="m128.22,16.27q3.6,0 6.82,0.11a0.81,0.8 -8.5 0 1 0.73,0.54l19.37,56.7a0.29,0.29 0 0 1 -0.27,0.38l-13.34,0a0.81,0.81 0 0 1 -0.78,-0.58l-2.71,-9.05a0.87,0.85 82.6 0 0 -0.78,-0.61q-0.73,-0.04 -9.04,-0.04q-8.31,0 -9.04,0.04a0.87,0.85 -82.6 0 0 -0.78,0.61l-2.71,9.05a0.81,0.81 0 0 1 -0.78,0.58l-13.34,0a0.29,0.29 0 0 1 -0.27,-0.38l19.37,-56.7a0.81,0.8 8.5 0 1 0.73,-0.54q3.21,-0.11 6.82,-0.11zm0,35.73q5.17,0 5.75,-0.06a0.24,0.24 0 0 0 0.2,-0.31l-5.78,-19.85a0.16,0.08 4.6 0 0 -0.11,-0.07q-0.03,-0.01 -0.06,-0.01q-0.02,0 -0.05,0.01a0.16,0.08 -4.6 0 0 -0.11,0.07l-5.79,19.85a0.24,0.24 0 0 0 0.2,0.31q0.58,0.06 5.75,0.06z" fill="#c9a33b" id="svg_3"/>
  <path d="m177.16,73.94c-6.74,0.18 -13.36,1.16 -16.65,-3.91q-1.09,-1.67 -1.08,-6.75q0.04,-33.36 0,-46.37a0.64,0.63 -0.4 0 1 0.64,-0.64l11.42,0a0.63,0.63 0 0 1 0.63,0.63q0.06,22.64 -0.01,43.61c-0.02,3.38 2.38,3.49 4.98,3.22a0.66,0.65 -2.8 0 1 0.72,0.65l0,8.89a0.67,0.67 0 0 1 -0.65,0.67z" fill="#c9a33b" id="svg_4"/>
  <path d="m201.81,64.38l0,8.89a0.67,0.67 0 0 1 -0.65,0.67c-6.74,0.18 -13.36,1.16 -16.65,-3.91q-1.09,-1.67 -1.08,-6.75q0.04,-33.36 0,-46.37a0.64,0.63 -0.4 0 1 0.64,-0.64l11.42,0a0.63,0.63 0 0 1 0.63,0.63q0.06,22.64 -0.01,43.61c-0.02,3.38 2.38,3.49 4.98,3.22a0.66,0.65 -2.8 0 1 0.72,0.65z" fill="#c9a33b" id="svg_5"/>
  <path d="m249.18,59.98q-3.47,9.82 -11.58,13.22c-9.07,3.8 -21.89,1.7 -27.68,-6.88c-8.79,-13.02 -3.21,-33.15 13.75,-35.7c16.31,-2.44 27.44,7.96 26.3,24.29a0.4,0.4 0 0 1 -0.4,0.37l-29.67,0a0.45,0.45 0 0 0 -0.45,0.51q0.84,6.2 6.42,7.72q7.18,1.95 10.44,-3.71a1.18,1.18 0 0 1 1.02,-0.59l11.3,0a0.58,0.58 0 0 1 0.55,0.77zm-29.21,-13.76l16.78,0a0.14,0.14 0 0 0 0.14,-0.14l0,-0.09a8.38,5.87 0 0 0 -8.38,-5.87l-0.3,0a8.38,5.87 0 0 0 -8.38,5.87l0,0.09a0.14,0.14 0 0 0 0.14,0.14z" fill="#ffffff" id="svg_6" transform="matrix(1, 0, 0, 1, 0, 0)"/>
  <path d="m284.83,68.89a0.29,0.29 0 0 0 -0.5,-0.16c-2.24,2.34 -3.1,3.5 -5.74,4.2q-5.76,1.53 -11.77,-1.03c-10.35,-4.41 -13.45,-16.92 -10.83,-26.96q3.31,-12.64 16.06,-14.63q7.19,-1.12 12.28,4.69a0.28,0.28 0 0 0 0.49,-0.18l0,-3.03a0.58,0.57 0 0 1 0.58,-0.57l11.67,0.01a0.43,0.42 0 0 1 0.43,0.42q0.08,26.61 -0.05,40.36c-0.12,12.66 -9.32,18.5 -21.08,17.73c-10.02,-0.66 -17.47,-3.2 -19.78,-13.79a0.41,0.41 0 0 1 0.4,-0.49l11.56,0a1,1 0 0 1 0.91,0.58q1.87,4.07 6.47,4.21c4.3,0.13 8.47,-1 8.74,-6.02q0.24,-4.75 0.16,-5.34zm-7.4,-27.95a10.81,9.41 -89.6 0 0 -9.49,10.74a10.81,9.41 -89.6 0 0 9.33,10.88a10.81,9.41 -89.6 0 0 9.49,-10.74a10.81,9.41 -89.6 0 0 -9.33,-10.88z" fill="#ffffff" id="svg_7" transform="matrix(1, 0, 0, 1, 0, 0)"/>
  <path d="m319.07,34.99q4.49,-5.5 11.89,-4.7a0.59,0.59 0 0 1 0.54,0.59l0,10.79a0.6,0.6 0 0 1 -0.63,0.6c-9.06,-0.51 -12.15,3.7 -12.23,12.36q-0.01,0.52 -0.01,18.7a0.67,0.67 0 0 1 -0.67,0.67l-11.38,0a0.68,0.68 0 0 1 -0.68,-0.68l0,-41.46a0.64,0.64 0 0 1 0.64,-0.64l11.59,0a0.47,0.47 0 0 1 0.47,0.47l0,3.13a0.27,0.27 0 0 0 0.47,0.17z" fill="#ffffff" id="svg_8" transform="matrix(1, 0, 0, 1, 0, 0)"/>
  <path d="m361.98,70.09a0.46,0.46 0 0 0 -0.79,-0.07q-2.45,3.48 -6.68,4.48c-9.41,2.25 -19.56,-2.11 -19.21,-13.3c0.26,-8.23 7.34,-11.43 14.4,-12.76q5.68,-1.06 11.47,-2.06a0.67,0.67 0 0 0 0.56,-0.68c-0.3,-8.14 -10.19,-7.67 -12.18,-0.75a0.81,0.81 0 0 1 -0.78,0.58l-11.3,0.01a0.53,0.53 0 0 1 -0.52,-0.64q2.31,-11.65 14.1,-14.1q8.11,-1.69 14.87,1.59c7.02,3.41 8.4,9.84 8.5,17.11q0.15,10.82 0.08,24.14a0.35,0.35 0 0 1 -0.35,0.36l-11.78,0a0.74,0.74 0 0 1 -0.73,-0.83q0.34,-3.07 0.34,-3.08zm-2.24,-14.54q-5.01,1.24 -6.65,1.54q-2.94,0.53 -3.82,1.43c-1.65,1.69 -1.96,5.13 0.62,6.13q3.5,1.36 7.99,-0.58a6.28,6.25 -4.7 0 0 3.6,-4.23l0.51,-2.04a1.86,1.86 0 0 0 -2.25,-2.25z" fill="#ffffff" id="svg_9" transform="matrix(1, 0, 0, 1, 0, 0)"/>
  <path d="m417.16,35.97q5.09,-6.73 14.16,-5.58c8.17,1.03 11.2,7.34 11.46,14.86q0.14,3.92 0.05,28.19a0.55,0.55 0 0 1 -0.55,0.55l-11.61,0a0.57,0.57 0 0 1 -0.57,-0.57q0.07,-19.83 -0.07,-27.64q-0.05,-3.07 -2.55,-4.76a1.93,1.88 66.3 0 0 -0.74,-0.3q-7.27,-1.28 -7.6,6q-0.24,5.01 -0.13,26.54a0.74,0.74 0 0 1 -0.74,0.74l-11.34,-0.01a0.63,0.63 0 0 1 -0.62,-0.64q-0.01,-0.37 -0.03,-26.58c0,-2.7 -0.96,-5.64 -3.93,-6.15c-4.41,-0.76 -7.03,1.85 -7.12,6.17q-0.22,10.43 -0.08,26.82a0.37,0.37 0 0 1 -0.37,0.38l-11.77,0a0.63,0.62 0 0 1 -0.63,-0.62l0,-41.52a0.63,0.63 0 0 1 0.63,-0.63l11.5,0a0.59,0.59 0 0 1 0.59,0.59l0,2.95a0.32,0.32 0 0 0 0.56,0.22q7.22,-7.72 17.33,-3.16q2.3,1.04 3.69,4.1a0.28,0.28 0 0 0 0.48,0.05z" fill="#ffffff" id="svg_10" transform="matrix(1, 0, 0, 1, 0, 0)"/>
  <path d="m474.92,70.02q-2.45,3.48 -6.68,4.48c-9.41,2.24 -19.55,-2.12 -19.2,-13.31c0.27,-8.23 7.35,-11.43 14.41,-12.75q5.67,-1.06 11.46,-2.06a0.67,0.67 0 0 0 0.56,-0.68c-0.29,-8.13 -10.18,-7.67 -12.17,-0.75a0.81,0.81 0 0 1 -0.78,0.58l-11.3,0a0.53,0.53 0 0 1 -0.52,-0.64q2.31,-11.64 14.1,-14.09q8.11,-1.68 14.87,1.6c7.02,3.41 8.39,9.84 8.49,17.11q0.15,10.82 0.07,24.14a0.35,0.35 0 0 1 -0.35,0.35l-11.78,0a0.74,0.74 0 0 1 -0.73,-0.83q0.34,-3.07 0.34,-3.08a0.46,0.46 0 0 0 -0.79,-0.07zm-1.43,-14.47q-5.01,1.24 -6.65,1.54q-2.94,0.53 -3.82,1.43c-1.65,1.69 -1.96,5.13 0.62,6.13q3.5,1.36 7.99,-0.58a6.28,6.25 -4.7 0 0 3.6,-4.23l0.51,-2.04a1.86,1.86 0 0 0 -2.25,-2.25z" fill="#ffffff" id="svg_11" transform="matrix(1, 0, 0, 1, 0, 0)"/>
  <path d="m523.83,68.73c-2.24,2.34 -3.1,3.5 -5.74,4.2q-5.76,1.54 -11.77,-1.02c-10.35,-4.4 -13.46,-16.91 -10.84,-26.95q3.3,-12.65 16.05,-14.64q7.19,-1.13 12.28,4.68a0.28,0.28 0 0 0 0.49,-0.18l0,-3.03a0.58,0.57 0 0 1 0.58,-0.57l11.67,0a0.43,0.42 0 0 1 0.43,0.42q0.09,26.61 -0.03,40.36c-0.11,12.66 -9.31,18.51 -21.07,17.74c-10.02,-0.65 -17.47,-3.19 -19.79,-13.77a0.41,0.41 0 0 1 0.4,-0.5l11.56,0a1,1 0 0 1 0.91,0.58q1.88,4.07 6.48,4.2c4.3,0.13 8.47,-1 8.73,-6.02q0.24,-4.75 0.16,-5.34a0.29,0.29 0 0 0 -0.5,-0.16zm-6.89,-27.79a10.81,9.41 -89.6 0 0 -9.49,10.74a10.81,9.41 -89.6 0 0 9.33,10.88a10.81,9.41 -89.6 0 0 9.49,-10.74a10.81,9.41 -89.6 0 0 -9.33,-10.88z" fill="#ffffff" id="svg_12"/>
 </g>
</svg>